<svg width="19" height="14" viewBox="0 0 19 14" fill="none" xmlns="http://www.w3.org/2000/svg">
<path d="M3.42188 0.175049C6.22176 -0.0582747 12.4443 -0.0582747 15.2441 0.175049L15.5205 0.201416C18.301 0.523019 18.666 2.34844 18.666 7.01978L18.6611 7.88892C18.6073 12.0678 18.0875 13.7176 15.2441 13.8635C12.4443 14.0191 6.22176 14.0191 3.42188 13.8635C0.578333 13.6447 0.0586839 12.0587 0.00488281 7.88794L0 7.01978C8.20319e-07 2.19787 0.388844 0.408432 3.42188 0.175049ZM14.3408 4.35669C11.7471 4.1956 6.91592 4.19552 4.32324 4.35669C4.32299 4.35926 4.32349 4.36192 4.32324 4.3645C4.26078 4.99726 4.23633 5.84206 4.23633 7.01978C4.23633 8.18938 4.26073 9.03011 4.32227 9.66138C6.97053 9.76666 11.6955 9.76666 14.3438 9.66138C14.4047 9.02381 14.4297 8.18051 14.4297 7.01978C14.4297 5.84206 14.4043 4.99726 14.3418 4.3645C14.3415 4.36189 14.3411 4.35929 14.3408 4.35669ZM7 5.52661C7 4.78323 7.78236 4.29963 8.44727 4.63208L11.4326 6.12524C12.1697 6.49377 12.1697 7.54578 11.4326 7.91431L8.44727 9.40649C7.78236 9.73894 7 9.25534 7 8.51196V5.52661Z" fill="#46A358" fill-opacity="0.6"/>
</svg>
