<svg width="29" height="18" viewBox="0 0 29 18" fill="none" xmlns="http://www.w3.org/2000/svg">
<g clip-path="url(#clip0_16_918)">
<path fill-rule="evenodd" clip-rule="evenodd" d="M20.3043 17.3575L20.7523 17.3451L21.1956 17.3126L21.628 17.2568L22.059 17.1808L22.4775 17.0847L22.8898 16.9669L23.2943 16.8305L23.6896 16.6755L24.0756 16.4988L24.4507 16.3097L24.8134 16.0989L25.1668 15.8726L25.5078 15.6292L25.8349 15.3719L26.1511 15.1006L26.4534 14.8108L26.7432 14.5085L27.0145 14.1923L27.2718 13.8653L27.5151 13.5242L27.7415 13.1708L27.9523 12.8081L28.1414 12.433L28.3181 12.047L28.4731 11.6518L28.6095 11.2472L28.7273 10.8349L28.8234 10.4164L28.8994 9.98546L28.9552 9.553L28.9877 9.10968L29.0001 8.66171L28.9877 8.21685L28.9552 7.77818L28.8994 7.34572L28.8234 6.921L28.7273 6.50249L28.6095 6.09172L28.4731 5.68871L28.3181 5.29654L28.1414 4.91213L27.9523 4.53701L27.7415 4.1774L27.5151 3.82399L27.2718 3.48298L27.0145 3.15901L26.7432 2.8428L26.4534 2.54054L26.1511 2.25378L25.8349 1.98252L25.5078 1.72366L25.1668 1.48185L24.8134 1.25555L24.4507 1.04784L24.0756 0.857181L23.6896 0.682025L23.2943 0.527019L22.8898 0.389064L22.4775 0.27281L22.059 0.175156L21.628 0.0992036L21.1956 0.0434016L20.7523 0.0124004L20.3043 0L19.8594 0.0124004L19.4177 0.0434016L18.9852 0.0992036L18.5574 0.175156L18.1389 0.27281L17.7265 0.389064L17.3251 0.527019L16.9298 0.682025L16.5454 0.857181L16.1749 1.04784L15.8107 1.25555L15.4604 1.48185L15.1209 1.72366L14.7923 1.98252L14.4792 2.25378L14.1785 2.54054L13.8902 2.8428L13.6189 3.15901L13.3616 3.48298L13.1213 3.82399L12.895 4.1774L12.6873 4.53701L12.4951 4.91213L12.3215 5.29654L12.1665 5.68871L12.0316 6.09172L11.9154 6.50249L11.8177 6.921L11.7418 7.34572L11.686 7.77818L11.655 8.21685L11.6426 8.66171L11.655 9.10968L11.686 9.553L11.7418 9.98546L11.8177 10.4164L11.9154 10.8349L12.0316 11.2472L12.1665 11.6518L12.3215 12.047L12.4951 12.433L12.6873 12.8081L12.895 13.1708L13.1213 13.5242L13.3616 13.8653L13.6189 14.1923L13.8902 14.5085L14.1785 14.8108L14.4792 15.1006L14.7923 15.3719L15.1209 15.6292L15.4604 15.8726L15.8107 16.0989L16.1749 16.3097L16.5454 16.4988L16.9298 16.6755L17.3251 16.8305L17.7265 16.9669L18.1389 17.0847L18.5574 17.1808L18.9852 17.2568L19.4177 17.3126L19.8594 17.3451L20.3043 17.3575Z" fill="#FCB331"/>
<path fill-rule="evenodd" clip-rule="evenodd" d="M8.69426 17.3575L9.13913 17.3451L9.5809 17.3126L10.0149 17.2568L10.4427 17.1808L10.8612 17.0847L11.2736 16.9669L11.675 16.8305L12.0703 16.6755L12.4531 16.4988L12.8252 16.3097L13.1879 16.0989L13.5397 15.8726L13.8792 15.6292L14.2063 15.3719L14.5209 15.1006L14.8216 14.8108L15.1084 14.5085L15.3812 14.1923L15.6385 13.8653L15.8788 13.5242L16.1035 13.1708L16.3112 12.8081L16.505 12.433L16.6771 12.047L16.8336 11.6518L16.9669 11.2472L17.0847 10.8349L17.1808 10.4164L17.2568 9.98546L17.3126 9.553L17.3451 9.10968L17.3575 8.66171L17.3451 8.21685L17.3126 7.77818L17.2568 7.34572L17.1808 6.921L17.0847 6.50249L16.9669 6.09172L16.8336 5.68871L16.6771 5.29654L16.505 4.91213L16.3112 4.53701L16.1035 4.1774L15.8788 3.82399L15.6385 3.48298L15.3812 3.15901L15.1084 2.8428L14.8216 2.54054L14.5209 2.25378L14.2063 1.98252L13.8792 1.72366L13.5397 1.48185L13.1879 1.25555L12.8252 1.04784L12.4531 0.857181L12.0703 0.682025L11.675 0.527019L11.2736 0.389064L10.8612 0.27281L10.4427 0.175156L10.0149 0.0992036L9.5809 0.0434016L9.13913 0.0124004L8.69426 0L8.2463 0.0124004L7.80453 0.0434016L7.37207 0.0992036L6.94115 0.175156L6.52264 0.27281L6.11032 0.389064L5.70576 0.527019L5.31049 0.682025L4.92453 0.857181L4.54941 1.04784L4.1867 1.25555L3.83174 1.48185L3.49228 1.72366L3.16521 1.98252L2.849 2.25378L2.54674 2.54054L2.25688 2.8428L1.98407 3.15901L1.72676 3.48298L1.48495 3.82399L1.25865 4.1774L1.04784 4.53701L0.857181 4.91213L0.682025 5.29654L0.527019 5.68871L0.389064 6.09172L0.27281 6.50249L0.175156 6.921L0.0992036 7.34572L0.0434016 7.77818L0.0124004 8.21685L0 8.66171L0.0124004 9.10968L0.0434016 9.553L0.0992036 9.98546L0.175156 10.4164L0.27281 10.8349L0.389064 11.2472L0.527019 11.6518L0.682025 12.047L0.857181 12.433L1.04784 12.8081L1.25865 13.1708L1.48495 13.5242L1.72676 13.8653L1.98407 14.1923L2.25688 14.5085L2.54674 14.8108L2.849 15.1006L3.16521 15.3719L3.49228 15.6292L3.83174 15.8726L4.1867 16.0989L4.54941 16.3097L4.92453 16.4988L5.31049 16.6755L5.70576 16.8305L6.11032 16.9669L6.52264 17.0847L6.94115 17.1808L7.37207 17.2568L7.80453 17.3126L8.2463 17.3451L8.69426 17.3575Z" fill="#ED1B2E"/>
<path fill-rule="evenodd" clip-rule="evenodd" d="M13.4839 3.32803H18.0953V2.85681H13.8823L13.4839 3.32803Z" fill="#FCB331"/>
<path fill-rule="evenodd" clip-rule="evenodd" d="M12.7925 4.37731H18.0952V3.90454H13.0715L12.7925 4.37731Z" fill="#FCB331"/>
<path fill-rule="evenodd" clip-rule="evenodd" d="M12.2783 5.42215H18.0957V4.95093H12.4829L12.2783 5.42215Z" fill="#FCB331"/>
<path fill-rule="evenodd" clip-rule="evenodd" d="M11.9229 6.46987H18.0952V5.99866H12.0701L11.9229 6.46987Z" fill="#FCB331"/>
<path fill-rule="evenodd" clip-rule="evenodd" d="M12.1292 11.534H18.1093V11.0627H11.9819L12.1292 11.534Z" fill="#FCB331"/>
<path fill-rule="evenodd" clip-rule="evenodd" d="M12.5712 12.5818H18.1095V12.1106H12.3511L12.5712 12.5818Z" fill="#FCB331"/>
<path fill-rule="evenodd" clip-rule="evenodd" d="M13.1906 13.628H18.1089V13.1553H12.8945L13.1906 13.628Z" fill="#FCB331"/>
<path fill-rule="evenodd" clip-rule="evenodd" d="M14.0462 14.676H18.1089V14.2017H13.6323L14.0462 14.676Z" fill="#FCB331"/>
<path fill-rule="evenodd" clip-rule="evenodd" d="M11.7153 7.51467H18.0954V7.04346H11.8068L11.7153 7.51467Z" fill="#FCB331"/>
<path fill-rule="evenodd" clip-rule="evenodd" d="M15.6025 10.4893H18.0361V10.0181H15.6909L15.6025 10.4893Z" fill="#FCB331"/>
<path fill-rule="evenodd" clip-rule="evenodd" d="M15.7964 9.44453H18.0362V8.97021H15.8847L15.7964 9.44453Z" fill="#FCB331"/>
<path fill-rule="evenodd" clip-rule="evenodd" d="M11.5537 8.97021H12.1861V9.44453H11.5832L11.5537 8.97021Z" fill="#FCB331"/>
<path fill-rule="evenodd" clip-rule="evenodd" d="M10.3744 8.39826L10.3341 8.39671L10.2923 8.39051L10.2551 8.38431L10.2163 8.37811L10.1822 8.37191L10.1434 8.36726L10.1047 8.36106L10.0644 8.35486L10.0241 8.34866L9.97604 8.34556L9.92334 8.34401L9.86909 8.34091H9.80708L9.73888 8.34401L9.66293 8.34866L9.57923 8.35486L9.52032 8.36416L9.46452 8.37191L9.41492 8.39051L9.36997 8.40756L9.32967 8.42772L9.29092 8.45097L9.26301 8.48042L9.23666 8.50677L9.21806 8.53932L9.20411 8.57187L9.19791 8.60752V8.64162L9.20721 8.68037L9.21806 8.71758L9.24131 8.75633L9.27077 8.79353L9.32967 8.84933L9.39942 8.89428L9.48157 8.93148L9.56993 8.96404L9.66293 8.99349L9.76058 9.02604L9.85669 9.06014L9.94969 9.09889L10.038 9.14849L10.1202 9.21049L10.193 9.28335L10.2551 9.37325L10.3016 9.48485L10.331 9.61661L10.3419 9.77471L10.331 9.95917L10.3109 10.0971L10.2752 10.2165L10.2287 10.3281L10.1698 10.4242L10.1031 10.5094L10.0256 10.5823L9.94504 10.6474L9.85359 10.7032L9.76058 10.7466L9.66293 10.7854L9.56373 10.8148L9.46142 10.8381L9.36222 10.8551L9.26456 10.8644L9.16846 10.8691L9.07856 10.8722H8.95145L8.8352 10.8691H8.7329L8.63524 10.8675L8.54844 10.8644L8.46939 10.8582L8.39808 10.852L8.33143 10.8427L8.26943 10.8381L8.21363 10.8257L8.15937 10.8164L8.10822 10.8024L8.05862 10.79L8.01212 10.773L7.96562 10.7559L7.91602 10.7373L8.04777 10.0909L8.07412 10.0971L8.10667 10.1049L8.14697 10.1173L8.19658 10.1297L8.24928 10.1405L8.30818 10.1529L8.37173 10.1669L8.44304 10.1793L8.51589 10.1901L8.59184 10.2025L8.67089 10.2118L8.75305 10.2196L8.8383 10.2227L8.922 10.2258H9.00726L9.09251 10.2227L9.17776 10.2056L9.24441 10.1824L9.29712 10.1498L9.33897 10.108L9.36842 10.0677L9.39167 10.0212L9.40562 9.97467L9.41802 9.92972L9.42267 9.84447L9.39632 9.77161L9.34672 9.71271L9.27387 9.66311L9.18551 9.61971L9.08321 9.57631L8.97005 9.53446L8.85535 9.48795L8.7391 9.43525L8.62749 9.37325L8.52519 9.2973L8.43063 9.20739L8.35778 9.09579L8.30508 8.96404L8.27873 8.80593L8.28183 8.61837L8.29578 8.50367L8.31748 8.39671L8.34538 8.29596L8.38103 8.20296L8.42753 8.1146L8.48024 8.03865L8.54224 7.9658L8.61509 7.9007L8.70034 7.84644L8.79335 7.79839L8.89875 7.75499L9.01656 7.72244L9.14831 7.69609L9.29092 7.67594L9.44902 7.66354L9.62263 7.66199H9.73113L9.83034 7.66354L9.92179 7.66664L10.0024 7.66974L10.0768 7.67594L10.1434 7.68214L10.2023 7.68834L10.2551 7.69299L10.3047 7.69919L10.345 7.70849L10.3837 7.71469L10.4194 7.71934L10.4473 7.72554L10.4736 7.72864L10.5 7.73484L10.5248 7.73794L10.3744 8.39826Z" fill="white"/>
<path d="M10.3744 8.39826L10.3341 8.39671L10.2923 8.39051L10.2551 8.38431L10.2163 8.37811L10.1822 8.37191L10.1434 8.36726L10.1047 8.36106L10.0644 8.35486L10.0241 8.34866L9.97604 8.34556L9.92334 8.34401L9.86909 8.34091H9.80708L9.73888 8.34401L9.66293 8.34866L9.57923 8.35486L9.52032 8.36416L9.46452 8.37191L9.41492 8.39051L9.36997 8.40756L9.32967 8.42771L9.29092 8.45097L9.26301 8.48042L9.23666 8.50677L9.21806 8.53932L9.20411 8.57187L9.19791 8.60752V8.64162L9.20721 8.68037L9.21806 8.71758L9.24131 8.75633L9.27077 8.79353L9.32967 8.84933L9.39942 8.89428L9.48157 8.93148L9.56993 8.96403L9.66293 8.99349L9.76058 9.02604L9.85669 9.06014L9.94969 9.09889L10.038 9.14849L10.1202 9.21049L10.193 9.28335L10.2551 9.37325L10.3016 9.48485L10.331 9.61661L10.3419 9.77471L10.331 9.95917L10.3109 10.0971L10.2752 10.2165L10.2287 10.3281L10.1698 10.4242L10.1031 10.5094L10.0256 10.5823L9.94504 10.6474L9.85359 10.7032L9.76058 10.7466L9.66293 10.7854L9.56373 10.8148L9.46142 10.8381L9.36222 10.8551L9.26457 10.8644L9.16846 10.8691L9.07856 10.8722H8.95145L8.8352 10.8691H8.7329L8.63524 10.8675L8.54844 10.8644L8.46939 10.8582L8.39808 10.852L8.33143 10.8427L8.26943 10.8381L8.21363 10.8257L8.15937 10.8164L8.10822 10.8024L8.05862 10.79L8.01212 10.773L7.96562 10.7559L7.91602 10.7373L8.04777 10.0909L8.07412 10.0971L8.10667 10.1049L8.14697 10.1173L8.19658 10.1297L8.24928 10.1405L8.30818 10.1529L8.37173 10.1669L8.44304 10.1793L8.51589 10.1901L8.59184 10.2025L8.67089 10.2118L8.75305 10.2196L8.8383 10.2227L8.922 10.2258H9.00726L9.09251 10.2227L9.17776 10.2056L9.24441 10.1824L9.29712 10.1498L9.33897 10.108L9.36842 10.0677L9.39167 10.0212L9.40562 9.97467L9.41802 9.92972L9.42267 9.84447L9.39632 9.77161L9.34672 9.71271L9.27387 9.66311L9.18551 9.61971L9.08321 9.57631L8.97005 9.53446L8.85535 9.48795L8.7391 9.43525L8.62749 9.37325L8.52519 9.2973L8.43063 9.20739L8.35778 9.09579L8.30508 8.96403L8.27873 8.80593L8.28183 8.61837L8.29578 8.50367L8.31748 8.39671L8.34538 8.29596L8.38103 8.20296L8.42753 8.1146L8.48024 8.03865L8.54224 7.9658L8.61509 7.9007L8.70034 7.84644L8.79335 7.79839L8.89875 7.75499L9.01656 7.72244L9.14831 7.69609L9.29092 7.67594L9.44902 7.66354L9.62263 7.66199H9.73113L9.83034 7.66354L9.92179 7.66664L10.0024 7.66974L10.0768 7.67594L10.1434 7.68214L10.2023 7.68834L10.2551 7.69299L10.3047 7.69919L10.345 7.70849L10.3837 7.71469L10.4194 7.71934L10.4473 7.72554L10.4736 7.72864L10.5 7.73484L10.5248 7.73794L10.3744 8.39826Z" stroke="white" stroke-width="0.216" stroke-miterlimit="2.6131"/>
<path fill-rule="evenodd" clip-rule="evenodd" d="M11.0688 7.01404H11.8795L11.7601 7.72241H12.2484L12.143 8.38429L11.6284 8.37034L11.3463 10.0025L11.3432 10.0614L11.3587 10.1111L11.3881 10.1498L11.4253 10.1824L11.478 10.2025L11.5369 10.2196L11.602 10.232L11.6718 10.2382L11.7353 10.2351L11.7942 10.2289L11.8469 10.2196L11.8934 10.2087L11.9322 10.1963L11.9585 10.187L11.9756 10.1824L11.9818 10.1793L11.8795 10.7233L11.8593 10.7373L11.8392 10.7497L11.8175 10.7621L11.7973 10.7729L11.7772 10.7822L11.7539 10.79L11.7276 10.7993L11.7012 10.8086L11.6718 10.8163L11.6423 10.8225L11.6067 10.8287L11.5726 10.8349L11.5338 10.8411L11.4904 10.8458L11.4439 10.852L11.3928 10.8582H11.1711L11.0533 10.8489L10.951 10.838L10.858 10.8194L10.7789 10.7993L10.7107 10.7729L10.6565 10.7435L10.6053 10.7094L10.5681 10.6706L10.5387 10.6303L10.5185 10.5792L10.503 10.5296L10.4953 10.4738L10.4922 10.4133V10.3482L10.4999 10.2816L10.5092 10.2087L11.0688 7.01404Z" fill="white"/>
<path d="M11.0688 7.01404H11.8795L11.7601 7.72241H12.2484L12.143 8.38429L11.6284 8.37034L11.3463 10.0025L11.3432 10.0614L11.3587 10.1111L11.3881 10.1498L11.4253 10.1824L11.478 10.2025L11.5369 10.2196L11.602 10.232L11.6718 10.2382L11.7353 10.2351L11.7942 10.2289L11.8469 10.2196L11.8934 10.2087L11.9322 10.1963L11.9585 10.187L11.9756 10.1824L11.9818 10.1793L11.8795 10.7233L11.8593 10.7373L11.8392 10.7497L11.8175 10.7621L11.7973 10.7729L11.7772 10.7822L11.7539 10.79L11.7276 10.7993L11.7012 10.8086L11.6718 10.8163L11.6423 10.8225L11.6067 10.8287L11.5726 10.8349L11.5338 10.8411L11.4904 10.8458L11.4439 10.852L11.3928 10.8582H11.1711L11.0533 10.8489L10.951 10.838L10.858 10.8194L10.7789 10.7993L10.7107 10.7729L10.6565 10.7435L10.6053 10.7094L10.5681 10.6706L10.5387 10.6303L10.5185 10.5792L10.503 10.5296L10.4953 10.4738L10.4922 10.4133V10.3482L10.4999 10.2816L10.5092 10.2087L11.0688 7.01404Z" stroke="white" stroke-width="0.216" stroke-miterlimit="2.6131"/>
<path fill-rule="evenodd" clip-rule="evenodd" d="M12.8951 9.48795L12.8873 9.53755L12.8842 9.59026L12.8904 9.64606L12.9013 9.70186L12.9214 9.75766L12.9447 9.81036L12.9773 9.86617L13.0129 9.91577L13.0532 9.96537L13.0982 10.0088L13.1447 10.0537L13.1974 10.0878L13.2501 10.1204L13.309 10.1467L13.3663 10.1669L13.4252 10.1793L13.5012 10.1901L13.5756 10.1994L13.6515 10.2087L13.7275 10.2134L13.8034 10.2165H13.8825L13.9584 10.2134L14.0375 10.2087L14.1165 10.1963L14.1956 10.1824L14.2777 10.1638L14.3568 10.1374L14.439 10.1049L14.5227 10.0708L14.6048 10.0243L14.6901 9.97467L14.5738 10.6939L14.5258 10.7171L14.4793 10.7404L14.4328 10.759L14.3894 10.776L14.3444 10.79L14.2979 10.8055L14.2514 10.8164L14.2018 10.8257L14.1491 10.835L14.0902 10.8412L14.0282 10.8458L13.9615 10.852L13.8856 10.8551H13.8065L13.7151 10.8582H13.619L13.4748 10.8551L13.3291 10.8412L13.1819 10.8195L13.0362 10.7854L12.892 10.7404L12.7556 10.6846L12.6238 10.6117L12.4998 10.5265L12.3867 10.4273L12.2875 10.3079L12.2022 10.1731L12.1309 10.0181L12.0813 9.84447L12.0503 9.64916L12.041 9.43215L12.055 9.19189L12.0674 9.09889L12.0844 8.99039L12.1077 8.87568L12.1402 8.75323L12.1836 8.62767L12.2363 8.50212L12.3045 8.37191L12.3867 8.24946L12.4797 8.1332L12.5944 8.0216L12.723 7.9224L12.8687 7.83404L13.0393 7.76119L13.2299 7.70849L13.4407 7.67284L13.6779 7.66199L13.791 7.66354L13.9119 7.67594L14.0313 7.69609L14.1522 7.72554L14.2684 7.76894L14.3832 7.82164L14.4886 7.89295L14.5847 7.9751L14.673 8.0743L14.7459 8.19056L14.8048 8.32541L14.8451 8.48042L14.8683 8.65712L14.8714 8.85553L14.8513 9.07874L14.8079 9.32365L14.7924 9.5019H12.6579L12.7928 8.92528H14.0747L14.0809 8.85243L14.0778 8.78268L14.0731 8.71758L14.0607 8.66022L14.0406 8.60442L14.0204 8.55482L13.991 8.50987L13.9615 8.46957L13.9259 8.43392L13.8887 8.40446L13.8437 8.37811L13.8003 8.35486L13.7538 8.33781L13.7073 8.32541L13.6562 8.31766L13.6035 8.31146L13.5492 8.31456L13.4965 8.32231L13.4454 8.33471L13.3958 8.35176L13.3462 8.37501L13.3028 8.40136L13.2594 8.43392L13.2206 8.46957L13.1819 8.50987L13.1478 8.55482L13.1152 8.60132L13.0889 8.65092L13.0625 8.70363L13.0424 8.76253L13.0238 8.81988L13.0129 8.88188L12.8951 9.48795Z" fill="white"/>
<path d="M12.8951 9.48795L12.8873 9.53755L12.8842 9.59026L12.8904 9.64606L12.9013 9.70186L12.9214 9.75766L12.9447 9.81036L12.9773 9.86617L13.0129 9.91577L13.0532 9.96537L13.0982 10.0088L13.1447 10.0537L13.1974 10.0878L13.2501 10.1204L13.309 10.1467L13.3663 10.1669L13.4252 10.1793L13.5012 10.1901L13.5756 10.1994L13.6515 10.2087L13.7275 10.2134L13.8034 10.2165H13.8825L13.9584 10.2134L14.0375 10.2087L14.1165 10.1963L14.1956 10.1824L14.2777 10.1638L14.3568 10.1374L14.439 10.1049L14.5227 10.0708L14.6048 10.0243L14.6901 9.97467L14.5738 10.6939L14.5258 10.7171L14.4793 10.7404L14.4328 10.759L14.3894 10.776L14.3444 10.79L14.2979 10.8055L14.2514 10.8164L14.2018 10.8257L14.1491 10.835L14.0902 10.8412L14.0282 10.8458L13.9615 10.852L13.8856 10.8551H13.8065L13.7151 10.8582H13.619L13.4748 10.8551L13.3291 10.8412L13.1819 10.8195L13.0362 10.7854L12.892 10.7404L12.7556 10.6846L12.6238 10.6117L12.4998 10.5265L12.3867 10.4273L12.2875 10.3079L12.2022 10.1731L12.1309 10.0181L12.0813 9.84447L12.0503 9.64916L12.041 9.43215L12.055 9.19189L12.0674 9.09889L12.0844 8.99039L12.1077 8.87568L12.1402 8.75323L12.1836 8.62767L12.2363 8.50212L12.3045 8.37191L12.3867 8.24946L12.4797 8.1332L12.5944 8.0216L12.723 7.9224L12.8687 7.83404L13.0393 7.76119L13.2299 7.70849L13.4407 7.67284L13.6779 7.66199L13.791 7.66354L13.9119 7.67594L14.0313 7.69609L14.1522 7.72554L14.2684 7.76894L14.3832 7.82164L14.4886 7.89295L14.5847 7.9751L14.673 8.0743L14.7459 8.19056L14.8048 8.32541L14.8451 8.48042L14.8683 8.65712L14.8714 8.85553L14.8513 9.07874L14.8079 9.32365L14.7924 9.5019H12.6579L12.7928 8.92528H14.0747L14.0809 8.85243L14.0778 8.78268L14.0731 8.71758L14.0607 8.66022L14.0406 8.60442L14.0204 8.55482L13.991 8.50987L13.9615 8.46957L13.9259 8.43392L13.8887 8.40446L13.8437 8.37811L13.8003 8.35486L13.7538 8.33781L13.7073 8.32541L13.6562 8.31766L13.6035 8.31146L13.5492 8.31456L13.4965 8.32231L13.4454 8.33471L13.3958 8.35176L13.3462 8.37501L13.3028 8.40136L13.2594 8.43392L13.2206 8.46957L13.1819 8.50987L13.1478 8.55482L13.1152 8.60132L13.0889 8.65092L13.0625 8.70363L13.0424 8.76253L13.0238 8.81988L13.0129 8.88188L12.8951 9.48795Z" stroke="white" stroke-width="0.216" stroke-miterlimit="2.6131"/>
<path fill-rule="evenodd" clip-rule="evenodd" d="M19.8781 7.89904L19.8393 7.87734L19.8021 7.86029L19.7603 7.84014L19.7169 7.81999L19.6735 7.80139L19.6223 7.78433L19.5727 7.76728L19.52 7.74868L19.4642 7.73473L19.41 7.72233L19.3479 7.71148L19.2859 7.70218L19.2193 7.69598L19.1511 7.68978H19.0813H19.0085H18.9356L18.8581 7.69598L18.7791 7.70528L18.6985 7.71923L18.6163 7.74248L18.5342 7.77503L18.452 7.81689L18.3699 7.86959L18.2908 7.93314L18.2149 8.00909L18.142 8.10365L18.0707 8.21215L18.0072 8.34081L17.9451 8.48651L17.8893 8.65082L17.8428 8.83837L17.8258 8.94378L17.8134 9.04608L17.8072 9.14838L17.8103 9.24759L17.8196 9.34679L17.8397 9.44134L17.8661 9.52815L17.8986 9.6165L17.942 9.69555L17.9948 9.77151L18.0568 9.83971L18.1265 9.90016L18.2056 9.95286L18.297 9.99782L18.3962 10.035L18.5078 10.0614L18.545 10.0707L18.59 10.08L18.6427 10.0846L18.7 10.0908L18.7651 10.097H18.8318H18.9062L18.979 10.0908L19.055 10.0815L19.1309 10.0676L19.2038 10.0474L19.2782 10.0242L19.351 9.99161L19.4177 9.95286L19.4797 9.90636L19.5386 9.85366L19.4069 10.6349L19.3883 10.6504L19.3712 10.6674L19.3479 10.6876L19.3216 10.7062L19.289 10.7294L19.2487 10.7496L19.2007 10.7697L19.148 10.7883L19.0813 10.8085L19.0054 10.8224L18.917 10.8348L18.8147 10.8457L18.7 10.8519L18.5683 10.855L18.4195 10.8519L18.2552 10.8426L18.1219 10.8286L17.987 10.7992L17.8521 10.7558L17.7173 10.6969L17.5886 10.6271L17.4646 10.5388L17.3484 10.4365L17.2399 10.3187L17.1438 10.1869L17.0616 10.0412L16.9919 9.87691L16.9392 9.69865L16.9035 9.5018L16.8911 9.29409L16.8973 9.06623L16.9299 8.82287L16.9531 8.70352L16.9795 8.58571L17.0089 8.47256L17.0384 8.36406L17.0709 8.26175L17.1081 8.15945L17.1469 8.06179L17.1872 7.97189L17.2306 7.88044L17.2755 7.79519L17.3251 7.71458L17.3778 7.63708L17.4305 7.56423L17.4894 7.49447L17.5468 7.42937L17.6088 7.36892L17.6754 7.31002L17.7436 7.25422L17.8134 7.20461L17.8862 7.15811L17.9653 7.11316L18.0444 7.07596L18.1265 7.04031L18.2118 7.00776L18.3032 6.97831L18.3931 6.95505L18.4877 6.9349L18.5869 6.91785L18.6861 6.90235L18.7915 6.8915L18.8969 6.8853L19.0085 6.8822L19.1015 6.8853L19.1929 6.8915L19.2797 6.89925L19.3681 6.91165L19.4503 6.92405L19.5293 6.9411L19.6053 6.95505L19.675 6.97366L19.7432 6.99071L19.8021 7.00776L19.8579 7.02636L19.9044 7.04341L19.9447 7.05736L19.9804 7.06976L20.0067 7.08216L20.0238 7.08681L19.8781 7.89904Z" fill="white"/>
<path d="M19.8781 7.89904L19.8393 7.87734L19.8021 7.86029L19.7603 7.84014L19.7169 7.81999L19.6735 7.80139L19.6223 7.78433L19.5727 7.76728L19.52 7.74868L19.4642 7.73473L19.41 7.72233L19.3479 7.71148L19.2859 7.70218L19.2193 7.69598L19.1511 7.68978H19.0813H19.0085H18.9356L18.8581 7.69598L18.7791 7.70528L18.6985 7.71923L18.6163 7.74248L18.5342 7.77503L18.452 7.81689L18.3699 7.86959L18.2908 7.93314L18.2149 8.00909L18.142 8.10365L18.0707 8.21215L18.0072 8.34081L17.9451 8.48651L17.8893 8.65082L17.8428 8.83837L17.8258 8.94378L17.8134 9.04608L17.8072 9.14838L17.8103 9.24759L17.8196 9.34679L17.8397 9.44134L17.8661 9.52815L17.8986 9.6165L17.942 9.69555L17.9948 9.77151L18.0568 9.83971L18.1265 9.90016L18.2056 9.95286L18.297 9.99782L18.3962 10.035L18.5078 10.0614L18.545 10.0707L18.59 10.08L18.6427 10.0846L18.7 10.0908L18.7651 10.097H18.8318H18.9062L18.979 10.0908L19.055 10.0815L19.1309 10.0676L19.2038 10.0474L19.2782 10.0242L19.351 9.99161L19.4177 9.95286L19.4797 9.90636L19.5386 9.85366L19.4069 10.6349L19.3883 10.6504L19.3712 10.6674L19.3479 10.6876L19.3216 10.7062L19.289 10.7294L19.2487 10.7496L19.2007 10.7697L19.148 10.7883L19.0813 10.8085L19.0054 10.8224L18.917 10.8348L18.8147 10.8457L18.7 10.8519L18.5683 10.855L18.4195 10.8519L18.2552 10.8426L18.1219 10.8286L17.987 10.7992L17.8521 10.7558L17.7173 10.6969L17.5886 10.6271L17.4646 10.5388L17.3484 10.4365L17.2399 10.3187L17.1438 10.1869L17.0616 10.0412L16.9919 9.87691L16.9392 9.69865L16.9035 9.5018L16.8911 9.29409L16.8973 9.06623L16.9299 8.82287L16.9531 8.70352L16.9795 8.58571L17.0089 8.47256L17.0384 8.36406L17.0709 8.26175L17.1081 8.15945L17.1469 8.06179L17.1872 7.97189L17.2306 7.88044L17.2755 7.79519L17.3251 7.71458L17.3778 7.63708L17.4305 7.56423L17.4894 7.49447L17.5468 7.42937L17.6088 7.36892L17.6754 7.31002L17.7436 7.25422L17.8134 7.20461L17.8862 7.15811L17.9653 7.11316L18.0444 7.07596L18.1265 7.04031L18.2118 7.00776L18.3032 6.97831L18.3931 6.95505L18.4877 6.9349L18.5869 6.91785L18.6861 6.90235L18.7915 6.8915L18.8969 6.8853L19.0085 6.8822L19.1015 6.8853L19.1929 6.8915L19.2797 6.89925L19.3681 6.91165L19.4503 6.92405L19.5293 6.9411L19.6053 6.95505L19.675 6.97366L19.7432 6.99071L19.8021 7.00776L19.8579 7.02636L19.9044 7.04341L19.9447 7.05736L19.9804 7.06976L20.0067 7.08216L20.0238 7.08681L19.8781 7.89904Z" stroke="white" stroke-width="0.216" stroke-miterlimit="2.6131"/>
<path fill-rule="evenodd" clip-rule="evenodd" d="M27.0839 10.8582H26.2732L26.3321 10.5327V10.5032L26.2856 10.5621L26.236 10.6148L26.1864 10.6613L26.1337 10.7032L26.081 10.7404L26.0283 10.7729L25.9756 10.7993L25.9198 10.8256L25.864 10.8458L25.8082 10.8613L25.7524 10.8752L25.6935 10.8845L25.6361 10.8938L25.5803 10.8985L25.5214 10.9016H25.4625L25.3106 10.8907L25.1695 10.8582L25.0409 10.8086L24.9246 10.7404L24.8192 10.6567L24.7247 10.5559L24.6425 10.4474L24.5728 10.325L24.5139 10.1932L24.4674 10.0553L24.4348 9.91265L24.4116 9.76384L24.4038 9.61348L24.4054 9.46158L24.4209 9.31277L24.4472 9.16242L24.4906 8.99036L24.5433 8.82606L24.6053 8.67725L24.6782 8.5362L24.7541 8.40444L24.8425 8.28819L24.9324 8.18278L25.03 8.08513L25.1323 8.00143L25.2408 7.92702L25.3509 7.86347L25.4625 7.81387L25.5803 7.77202L25.6966 7.74567L25.8144 7.72862L25.9337 7.72242L26.019 7.72552L26.1011 7.73482L26.1771 7.74877L26.2468 7.76892L26.315 7.79372L26.3739 7.82007L26.4313 7.85107L26.484 7.88362L26.532 7.91927L26.5754 7.95647L26.6126 7.99523L26.6483 8.03243L26.6777 8.07118L26.7041 8.10838L26.7273 8.14403L26.7444 8.17968L26.9506 7.02954H27.7457L27.0839 10.8582Z" fill="white"/>
<path d="M27.0839 10.8582H26.2732L26.3321 10.5327V10.5032L26.2856 10.5621L26.236 10.6148L26.1864 10.6613L26.1337 10.7032L26.081 10.7404L26.0283 10.7729L25.9756 10.7993L25.9198 10.8256L25.864 10.8458L25.8082 10.8613L25.7524 10.8752L25.6935 10.8845L25.6361 10.8938L25.5803 10.8985L25.5214 10.9016H25.4625L25.3106 10.8907L25.1695 10.8582L25.0409 10.8086L24.9246 10.7404L24.8192 10.6567L24.7247 10.5559L24.6425 10.4474L24.5728 10.325L24.5139 10.1932L24.4674 10.0553L24.4348 9.91265L24.4116 9.76384L24.4038 9.61348L24.4054 9.46158L24.4209 9.31277L24.4472 9.16242L24.4906 8.99036L24.5433 8.82606L24.6053 8.67725L24.6782 8.5362L24.7541 8.40444L24.8425 8.28819L24.9324 8.18278L25.03 8.08513L25.1323 8.00143L25.2408 7.92702L25.3509 7.86347L25.4625 7.81387L25.5803 7.77202L25.6966 7.74567L25.8144 7.72862L25.9337 7.72242L26.019 7.72552L26.1011 7.73482L26.1771 7.74877L26.2468 7.76892L26.315 7.79372L26.3739 7.82007L26.4313 7.85107L26.484 7.88362L26.532 7.91927L26.5754 7.95647L26.6126 7.99523L26.6483 8.03243L26.6777 8.07118L26.7041 8.10838L26.7273 8.14403L26.7444 8.17968L26.9506 7.02954H27.7457L27.0839 10.8582Z" stroke="white" stroke-width="0.216" stroke-miterlimit="2.6131"/>
<path fill-rule="evenodd" clip-rule="evenodd" d="M25.759 10.1497L25.8411 10.1435L25.9171 10.1265L25.9869 10.1048L26.0551 10.0738L26.1155 10.0381L26.1744 9.99472L26.2302 9.94512L26.2798 9.89242L26.3232 9.83351L26.3651 9.76841L26.4023 9.70176L26.4348 9.63201L26.4643 9.5576L26.4875 9.48165L26.5077 9.4026L26.5232 9.32355L26.5371 9.24139L26.5464 9.15769V9.07864L26.5433 8.99648L26.534 8.92053L26.5232 8.84613L26.503 8.77638L26.4798 8.70972L26.4503 8.65082L26.4147 8.59502L26.3759 8.54852L26.3325 8.50667L26.2829 8.47256L26.2302 8.44931L26.1744 8.43381L26.1124 8.42761L26.0334 8.43381L25.9605 8.44621L25.8938 8.46946L25.8256 8.49892L25.7683 8.53612L25.7094 8.58262L25.6598 8.63377L25.6102 8.68802L25.5652 8.75312L25.5249 8.81978L25.4862 8.89108L25.4552 8.96703L25.4257 9.04609L25.4025 9.12514L25.3777 9.21039L25.3606 9.29409L25.3467 9.42275L25.3513 9.5638L25.373 9.70796L25.4102 9.84436L25.4691 9.96527L25.5451 10.0614L25.6412 10.1265L25.759 10.1497Z" fill="#FCB331"/>
<path fill-rule="evenodd" clip-rule="evenodd" d="M7.78093 10.2087L7.66312 10.8581H6.92529L6.947 10.7372L6.96095 10.6303L6.97335 10.5481L6.9842 10.5032L6.9439 10.5512L6.89739 10.5977L6.84159 10.6411L6.77959 10.683L6.70984 10.7233L6.63543 10.7589L6.55948 10.793L6.48043 10.8225L6.39673 10.8488L6.31147 10.869L6.22622 10.8876L6.13787 10.8984L6.05416 10.9046L5.96891 10.9077L5.88676 10.8984L5.80771 10.8876L5.7054 10.8612L5.61085 10.8318L5.53025 10.793L5.45584 10.7496L5.39229 10.7031L5.33339 10.6504L5.28689 10.5946L5.24504 10.5357L5.21093 10.4737L5.18148 10.4102L5.15823 10.3451L5.13963 10.2815L5.12878 10.2133L5.11948 10.1467L5.11328 10.0816V10.018L5.12258 9.90331L5.13963 9.79481L5.16908 9.6925L5.20783 9.5933L5.25434 9.5003L5.30704 9.41504L5.36904 9.33289L5.43879 9.26004L5.51165 9.19184L5.5938 9.13138L5.67905 9.07558L5.7674 9.02908L5.86041 8.98723L5.95651 8.95468L6.05726 8.92833L6.15957 8.91128H6.16422L6.17972 8.90818L6.19987 8.90507L6.23242 8.90197L6.26807 8.89732L6.30837 8.89422L6.35177 8.88802L6.40138 8.88182L6.45253 8.87562L6.50213 8.87097L6.55483 8.86787L6.60133 8.86167L6.64783 8.85857L6.69124 8.85547L6.73309 8.85237H6.76564H6.83229L6.90204 8.85547L6.96715 8.85857H7.0307L7.0834 8.86167L7.12525 8.86477L7.1547 8.86787H7.16245L7.16865 8.84617L7.18725 8.79347L7.2012 8.73302L7.2074 8.67722L7.195 8.61211L7.16865 8.55476L7.13455 8.50206L7.0865 8.45711L7.0307 8.41991L6.97025 8.39356L6.89894 8.37496L6.82299 8.37031L6.74084 8.36721L6.65404 8.3641H6.56258L6.46958 8.36721L6.37348 8.37186L6.27892 8.38116L6.18592 8.39046L6.09447 8.40131L6.00611 8.41371L5.92241 8.42766L5.84646 8.44316L5.77515 8.45711L5.7116 8.47571L5.6589 8.49276L5.61705 8.51291L5.5845 8.52996L5.79376 7.82469L5.85731 7.79833L5.92241 7.77508L5.99216 7.75493L6.06191 7.74098L6.13322 7.72548L6.20917 7.71463L6.28512 7.70223L6.36418 7.69603L6.44633 7.68983L6.53003 7.68828L6.61838 7.68518H6.70984H6.80284H6.89894L7.0028 7.68828L7.1051 7.68983L7.18725 7.69603L7.27406 7.71153L7.36551 7.73168L7.45851 7.75803L7.54997 7.79368L7.63677 7.83399L7.72512 7.88359L7.80728 7.93939L7.88013 8.00449L7.94523 8.07424L8.00258 8.1533L8.04753 8.2401L8.07699 8.33465L8.09404 8.43386V8.54546L8.07699 8.66172L7.78093 10.2087Z" fill="white"/>
<path d="M7.78092 10.2087L7.66312 10.8581H6.92529L6.947 10.7372L6.96095 10.6303L6.97335 10.5481L6.9842 10.5032L6.9439 10.5512L6.89739 10.5977L6.84159 10.6411L6.77959 10.683L6.70984 10.7233L6.63543 10.7589L6.55948 10.793L6.48043 10.8225L6.39673 10.8488L6.31147 10.869L6.22622 10.8876L6.13787 10.8984L6.05416 10.9046L5.96891 10.9077L5.88676 10.8984L5.80771 10.8876L5.7054 10.8612L5.61085 10.8318L5.53025 10.793L5.45584 10.7496L5.39229 10.7031L5.33339 10.6504L5.28689 10.5946L5.24504 10.5357L5.21093 10.4737L5.18148 10.4102L5.15823 10.3451L5.13963 10.2815L5.12878 10.2133L5.11948 10.1467L5.11328 10.0816V10.018L5.12258 9.90331L5.13963 9.79481L5.16908 9.6925L5.20783 9.5933L5.25434 9.5003L5.30704 9.41504L5.36904 9.33289L5.43879 9.26004L5.51165 9.19184L5.5938 9.13138L5.67905 9.07558L5.7674 9.02908L5.86041 8.98723L5.95651 8.95468L6.05726 8.92833L6.15957 8.91128H6.16422L6.17972 8.90818L6.19987 8.90507L6.23242 8.90197L6.26807 8.89732L6.30837 8.89422L6.35177 8.88802L6.40138 8.88182L6.45253 8.87562L6.50213 8.87097L6.55483 8.86787L6.60133 8.86167L6.64783 8.85857L6.69124 8.85547L6.73309 8.85237H6.76564H6.83229L6.90204 8.85547L6.96715 8.85857H7.0307L7.0834 8.86167L7.12525 8.86477L7.1547 8.86787H7.16245L7.16865 8.84617L7.18725 8.79347L7.2012 8.73302L7.2074 8.67722L7.195 8.61211L7.16865 8.55476L7.13455 8.50206L7.0865 8.45711L7.0307 8.41991L6.97025 8.39356L6.89894 8.37496L6.82299 8.37031L6.74084 8.36721L6.65404 8.3641H6.56258L6.46958 8.36721L6.37348 8.37186L6.27892 8.38116L6.18592 8.39046L6.09447 8.40131L6.00611 8.41371L5.92241 8.42766L5.84646 8.44316L5.77515 8.45711L5.7116 8.47571L5.6589 8.49276L5.61705 8.51291L5.5845 8.52996L5.79376 7.82469L5.85731 7.79833L5.92241 7.77508L5.99216 7.75493L6.06191 7.74098L6.13322 7.72548L6.20917 7.71463L6.28512 7.70223L6.36418 7.69603L6.44633 7.68983L6.53003 7.68828L6.61838 7.68518H6.70984H6.80284H6.89894L7.0028 7.68828L7.1051 7.68983L7.18725 7.69603L7.27406 7.71153L7.36551 7.73168L7.45851 7.75803L7.54997 7.79368L7.63677 7.83399L7.72512 7.88359L7.80728 7.93939L7.88013 8.00449L7.94523 8.07424L8.00258 8.1533L8.04753 8.2401L8.07699 8.33465L8.09404 8.43386V8.54546L8.07699 8.66172L7.78092 10.2087Z" stroke="white" stroke-width="0.216" stroke-miterlimit="2.6131"/>
<path fill-rule="evenodd" clip-rule="evenodd" d="M7.07584 9.44455L7.07274 9.42905L7.06034 9.4151L7.04329 9.4058L7.01384 9.3996L6.98129 9.39495L6.94408 9.39185H6.89913H6.85573L6.80923 9.39495L6.75963 9.3996L6.71313 9.4058L6.66507 9.412L6.62167 9.4182L6.58137 9.42595L6.54572 9.43525L6.51317 9.44455L6.49302 9.4492L6.46977 9.4585L6.43722 9.4709L6.40467 9.48485L6.36746 9.5019L6.32871 9.5236L6.28841 9.54375L6.24966 9.567L6.20936 9.59645L6.17061 9.6259L6.13651 9.66001L6.10396 9.69566L6.0745 9.73441L6.05435 9.77471L6.03575 9.82121L6.028 9.86926L6.0249 9.96847L6.03885 10.0475L6.0683 10.1049L6.10706 10.1498L6.15046 10.1793L6.20006 10.1963L6.24656 10.2056L6.29461 10.2087L6.38141 10.2056L6.46047 10.1963L6.53642 10.1855L6.60462 10.1669L6.66197 10.1467L6.71778 10.1204L6.76738 10.094L6.81233 10.0615L6.84953 10.032L6.88518 9.99792L6.91463 9.96537L6.93788 9.92972L6.95803 9.89561L6.97664 9.85996L6.99059 9.82741L6.99989 9.79486L7.02314 9.71116L7.04329 9.6135L7.06034 9.5205L7.07584 9.44455Z" fill="#ED1B2E"/>
<path fill-rule="evenodd" clip-rule="evenodd" d="M1.62135 10.8582H0.826172L1.4896 7.01404H2.87535L3.0071 9.29417L3.96349 7.01404H5.40969L4.73077 10.8582H3.93404L4.4378 7.98592H4.40525L3.21481 10.8582H2.31578L2.30958 10.7373L2.28943 10.4195L2.26307 9.96534L2.23362 9.44453L2.20417 8.92061L2.17782 8.46024L2.15767 8.12698L2.15147 7.98592H2.14217H2.12512H2.10807L1.62135 10.8582Z" fill="white"/>
<path d="M1.62135 10.8582H0.826172L1.4896 7.01404H2.87535L3.0071 9.29417L3.96349 7.01404H5.40969L4.73077 10.8582H3.93404L4.4378 7.98592H4.40525L3.21481 10.8582H2.31578L2.30958 10.7373L2.28943 10.4195L2.26307 9.96534L2.23362 9.44453L2.20417 8.92061L2.17782 8.46024L2.15767 8.12698L2.15147 7.98592H2.14217H2.12512H2.10807L1.62135 10.8582Z" stroke="white" stroke-width="0.216" stroke-miterlimit="2.6131"/>
<path fill-rule="evenodd" clip-rule="evenodd" d="M22.3099 10.2087L22.1905 10.8581H21.4558L21.4604 10.7372L21.4635 10.6318V10.5528L21.4697 10.5187L21.4325 10.5621L21.3876 10.6055L21.3349 10.6473L21.276 10.6876L21.2155 10.7264L21.1442 10.762L21.0714 10.7961L20.9985 10.8256L20.9195 10.8488L20.8373 10.8721L20.7552 10.8876L20.673 10.8984L20.5893 10.9046L20.5071 10.9077L20.4281 10.8984L20.349 10.8876L20.2436 10.8612L20.1491 10.8318L20.0669 10.793L19.991 10.7496L19.9274 10.7031L19.8716 10.6504L19.8251 10.5946L19.7833 10.5357L19.7492 10.4737L19.7228 10.4102L19.6996 10.3451L19.6841 10.2815L19.6732 10.2133L19.6639 10.1467L19.6577 10.0816V10.018L19.6639 9.90331L19.681 9.79481L19.7073 9.6925L19.7461 9.5933L19.7895 9.5003L19.8453 9.41504L19.9073 9.33289L19.9739 9.26004L20.0499 9.19184L20.1289 9.13138L20.2142 9.07558L20.3041 9.02908L20.3955 8.98723L20.4916 8.95468L20.5893 8.92833L20.6885 8.91128H20.6947L20.7087 8.90818L20.7288 8.90507L20.7583 8.90197L20.797 8.89732L20.8373 8.89422L20.8823 8.88802L20.9288 8.88182L20.9784 8.87562L21.0311 8.87097L21.0807 8.86787L21.1303 8.86167L21.1768 8.85857L21.2186 8.85547L21.2589 8.85237H21.2915H21.3612L21.4325 8.85547L21.4992 8.85857H21.5643L21.6185 8.86167L21.6666 8.86477L21.6929 8.86787H21.7038L21.71 8.84617L21.7193 8.79347L21.727 8.73302L21.7332 8.67722L21.7224 8.61211L21.6976 8.55476L21.6604 8.50206L21.617 8.45711L21.5643 8.41991L21.5023 8.39356L21.4372 8.37496L21.3674 8.37031L21.2853 8.36721L21.1969 8.3641H21.107L21.0125 8.36721L20.9164 8.37186L20.8234 8.38116L20.7288 8.39046L20.6389 8.40131L20.5506 8.41371L20.4653 8.42766L20.3893 8.44316L20.3196 8.45711L20.2545 8.47571L20.2018 8.49276L20.1615 8.51291L20.1289 8.52996L20.3335 7.82469L20.3986 7.79833L20.4653 7.77508L20.5335 7.75493L20.6033 7.74098L20.6761 7.72548L20.7505 7.71463L20.8265 7.70223L20.9055 7.69603L20.9877 7.68983L21.0714 7.68828L21.1566 7.68518H21.2481H21.338H21.4325L21.5317 7.68828L21.6309 7.68983L21.7131 7.69603L21.8014 7.71153L21.8914 7.73168L21.9859 7.75803L22.0758 7.79368L22.1673 7.83399L22.2541 7.88359L22.3362 7.93939L22.4091 8.00449L22.4773 8.07424L22.5362 8.1533L22.5796 8.2401L22.6121 8.33465L22.6323 8.43386V8.54546L22.6168 8.66172L22.3099 10.2087Z" fill="white"/>
<path fill-rule="evenodd" clip-rule="evenodd" d="M22.1905 10.8783L22.2075 10.8612L22.3269 10.2118L22.2928 10.2056L22.1719 10.855L22.1905 10.838V10.8783L22.2044 10.8752L22.2075 10.8612L22.1905 10.8783Z" fill="white"/>
<path fill-rule="evenodd" clip-rule="evenodd" d="M21.4372 10.8582L21.4558 10.8783H22.1905V10.838H21.4558L21.4728 10.8582H21.4372L21.4341 10.8783H21.4558L21.4372 10.8582Z" fill="white"/>
<path fill-rule="evenodd" clip-rule="evenodd" d="M21.4856 10.5295L21.4592 10.5062L21.4468 10.5527L21.4437 10.6318V10.7372L21.4375 10.8581H21.4732L21.4794 10.7372L21.4856 10.6318L21.4825 10.5527V10.5295L21.4561 10.5062L21.4856 10.5295Z" fill="white"/>
<path fill-rule="evenodd" clip-rule="evenodd" d="M20.3462 10.9046L20.4283 10.917L20.5074 10.9247L20.5896 10.9216L20.6733 10.917L20.7585 10.9046L20.8407 10.8906L20.9228 10.8674L21.005 10.8426L21.0778 10.8147L21.1538 10.779L21.2235 10.7434L21.2855 10.7031L21.3475 10.6612L21.4002 10.6209L21.4467 10.5744L21.4855 10.5295L21.456 10.5062L21.4173 10.5512L21.377 10.5915L21.3243 10.6318L21.2685 10.6736L21.2065 10.7093L21.1367 10.7434L21.0654 10.779L20.9926 10.8085L20.9166 10.8317L20.8345 10.855L20.7523 10.8689L20.6733 10.8813L20.5896 10.8875L20.5074 10.8906L20.4283 10.8813L20.3524 10.8689L20.3462 10.9046Z" fill="white"/>
<path fill-rule="evenodd" clip-rule="evenodd" d="M19.6372 10.0181L19.6403 10.0816L19.6465 10.1467L19.6543 10.2165L19.6667 10.2847L19.6806 10.3482L19.7039 10.4164L19.7302 10.4831L19.769 10.5451L19.8093 10.6055L19.8573 10.6613L19.9147 10.7171L19.9829 10.7636L20.0588 10.8117L20.1441 10.8489L20.2402 10.8783L20.3456 10.9047L20.3518 10.869L20.2464 10.8427L20.1549 10.8148L20.0759 10.776L19.9999 10.7357L19.9379 10.6877L19.8852 10.6381L19.8387 10.5823L19.7984 10.5265L19.7659 10.466L19.7395 10.404L19.7163 10.3436L19.7008 10.2785L19.6899 10.2118L19.6806 10.1467L19.6744 10.0816L19.6775 10.0181H19.6372Z" fill="white"/>
<path fill-rule="evenodd" clip-rule="evenodd" d="M20.6882 8.89417L20.5859 8.91122L20.4866 8.93757L20.389 8.97012L20.296 9.01042L20.2045 9.05692L20.1177 9.11582L20.0387 9.17782L19.9612 9.24758L19.8914 9.32043L19.8294 9.40258L19.7721 9.49094L19.7271 9.58704L19.6899 9.68624L19.6636 9.79165L19.6465 9.90325L19.6372 10.018H19.6775L19.6806 9.90325L19.6992 9.79785L19.7256 9.69864L19.7628 9.59944L19.8062 9.50799L19.8589 9.42583L19.9209 9.34368L19.986 9.27083L20.0619 9.20728L20.141 9.14527L20.2231 9.09257L20.313 9.04607L20.4014 9.00422L20.4975 8.97322L20.5921 8.94687L20.6882 8.92827V8.89417Z" fill="white"/>
<path fill-rule="evenodd" clip-rule="evenodd" d="M21.2915 8.83228H21.2589L21.2186 8.83848L21.1767 8.84158L21.1302 8.84468L21.0806 8.84933L21.031 8.85243L20.9783 8.85863L20.9287 8.86483L20.8822 8.87103L20.8373 8.87568L20.797 8.87878L20.7582 8.88498L20.7288 8.88808L20.7055 8.89118L20.6947 8.89428H20.6885V8.92838H20.6947L20.7117 8.92528L20.7288 8.92373L20.7582 8.92063L20.797 8.91443L20.8373 8.91133L20.8822 8.90513L20.9287 8.89893L20.9783 8.89428L21.031 8.88808L21.0806 8.88498L21.1302 8.87878L21.1767 8.87568L21.2186 8.87258H21.2589H21.2915V8.83228Z" fill="white"/>
<path fill-rule="evenodd" clip-rule="evenodd" d="M21.6863 8.86483L21.7033 8.84933H21.6925L21.6661 8.84623L21.6181 8.84468L21.5638 8.83848H21.4987H21.4321L21.3608 8.83228H21.291V8.87258H21.3608H21.4321L21.4987 8.87878H21.5638H21.6181L21.6661 8.88188L21.6925 8.88498H21.7033L21.7219 8.87103L21.7033 8.88498L21.7188 8.88808L21.7219 8.87103L21.6863 8.86483Z" fill="white"/>
<path fill-rule="evenodd" clip-rule="evenodd" d="M21.716 8.67725H21.7129L21.7098 8.73305L21.7005 8.79195L21.6927 8.84465L21.6865 8.8648L21.7222 8.871L21.7268 8.8493L21.7361 8.7966L21.7454 8.73305L21.7532 8.67725H21.7501H21.716Z" fill="white"/>
<path fill-rule="evenodd" clip-rule="evenodd" d="M21.3677 8.38738V8.39048L21.4343 8.39358L21.4963 8.41064L21.5552 8.43699L21.6048 8.47264L21.6451 8.51294L21.6808 8.56254L21.704 8.61524L21.7164 8.67725H21.7505L21.7397 8.60904L21.7164 8.54549L21.6746 8.48969L21.6281 8.44319L21.5723 8.40134L21.5087 8.37498L21.4405 8.35793L21.3677 8.34863V8.35173V8.38738Z" fill="white"/>
<path fill-rule="evenodd" clip-rule="evenodd" d="M20.1118 8.52845L20.1413 8.5455L20.1707 8.53L20.2079 8.50985L20.2575 8.4928L20.3226 8.47575L20.3924 8.46025L20.4683 8.4463L20.5536 8.4308L20.6388 8.41995L20.7287 8.40755L20.8233 8.39825L20.9163 8.3905L21.0124 8.3843H21.107H21.1969H21.2852L21.3674 8.3874V8.35174L21.2852 8.34864L21.1969 8.34399H21.107L21.0124 8.34864L20.9163 8.35484L20.8233 8.36414L20.7287 8.37189L20.6388 8.3843L20.5474 8.3967L20.4621 8.41065L20.3862 8.4246L20.3164 8.4401L20.2513 8.45715L20.1971 8.47575L20.1521 8.4959L20.118 8.51605L20.1459 8.5331L20.1118 8.52845Z" fill="white"/>
<path fill-rule="evenodd" clip-rule="evenodd" d="M20.3288 7.80762L20.3164 7.82157L20.1118 8.52839L20.1459 8.53304L20.3521 7.82777L20.3397 7.84327L20.3288 7.80762L20.3195 7.81072L20.3164 7.82157L20.3288 7.80762Z" fill="white"/>
<path fill-rule="evenodd" clip-rule="evenodd" d="M21.6312 7.67275L21.532 7.66655L21.4327 7.66345H21.3382H21.2483H21.1568L21.0716 7.66965L20.9879 7.67275L20.9057 7.67895L20.8267 7.68515L20.7476 7.696L20.6732 7.7084L20.6004 7.72235L20.5306 7.73786L20.4609 7.75801L20.3927 7.78126L20.3291 7.80761L20.34 7.84326L20.4051 7.81691L20.4717 7.79366L20.5368 7.77196L20.6066 7.75801L20.6794 7.74251L20.7523 7.73166L20.8267 7.71925L20.9057 7.7146L20.9879 7.7084L21.0716 7.7053H21.1568H21.2483H21.3382H21.4327L21.532 7.7084H21.6312V7.67275Z" fill="white"/>
<path fill-rule="evenodd" clip-rule="evenodd" d="M22.6353 8.66477L22.6493 8.54541V8.43381L22.6291 8.3315L22.5965 8.2354L22.55 8.14395L22.4911 8.06179L22.4214 7.98894L22.3485 7.92539L22.2633 7.86959L22.1749 7.81688L22.0819 7.77503L21.9905 7.74093L21.8944 7.71458L21.8029 7.69288L21.713 7.67893L21.6309 7.67273V7.70838L21.713 7.71458L21.7983 7.72853L21.8882 7.74868L21.9796 7.77503L22.0695 7.81068L22.1579 7.85099L22.2462 7.89904L22.3253 7.95329L22.3981 8.01839L22.4617 8.08504L22.5206 8.161L22.5624 8.24625L22.5934 8.3377L22.6151 8.43381V8.54541L22.5996 8.66012L22.6353 8.66477Z" fill="white"/>
<path fill-rule="evenodd" clip-rule="evenodd" d="M22.3271 10.2118L22.6355 8.66481L22.5999 8.66016L22.293 10.2056L22.3271 10.2118Z" fill="white"/>
<path fill-rule="evenodd" clip-rule="evenodd" d="M21.6013 9.44447L21.5951 9.42587L21.5842 9.41192L21.5641 9.40262L21.5346 9.39487L21.5021 9.39177L21.4633 9.38867H21.4199L21.3765 9.39177L21.33 9.39642L21.282 9.40262L21.2355 9.40882L21.1921 9.41502L21.1471 9.42277L21.1099 9.42897L21.0712 9.43827L21.0417 9.44447L21.0215 9.44757L20.9983 9.45532L20.9688 9.46463L20.9363 9.47548L20.8991 9.49408L20.8634 9.51113L20.8231 9.53128L20.7844 9.55763L20.7472 9.58398L20.7084 9.61653L20.6759 9.64908L20.6449 9.68628L20.6185 9.72814L20.5968 9.77154L20.5798 9.81804L20.5705 9.86919L20.5674 9.9684L20.5829 10.0474L20.6061 10.1048L20.6418 10.1498L20.6852 10.1792L20.7348 10.1963L20.7844 10.2056L20.834 10.2087L20.9223 10.2056L21.0045 10.1963L21.0805 10.1823L21.1471 10.1606L21.2122 10.1374L21.268 10.111L21.3207 10.0816L21.3672 10.0474L21.4075 10.0149L21.4432 9.97615L21.4757 9.94204L21.5021 9.90329L21.5222 9.86919L21.5377 9.83354L21.5486 9.79789L21.5579 9.76534L21.5687 9.68473L21.5842 9.59948L21.5951 9.51733L21.6013 9.44447Z" fill="#FCB331"/>
<path fill-rule="evenodd" clip-rule="evenodd" d="M27.6328 10.4567L27.6375 10.39L27.6623 10.311L27.7026 10.2397L27.7522 10.1792L27.8142 10.1296L27.8839 10.094L27.9599 10.0707L28.042 10.0614L28.1242 10.0707L28.2001 10.094L28.2699 10.1296L28.3319 10.1792L28.3815 10.2397L28.4233 10.311L28.4466 10.39L28.4512 10.4567H28.3644L28.3613 10.404L28.3443 10.3404L28.3148 10.2815L28.2761 10.2319L28.2296 10.1901L28.1738 10.1606L28.1102 10.1405L28.042 10.1343L27.9754 10.1405L27.9103 10.1606L27.8545 10.1901L27.808 10.2319L27.7692 10.2815L27.7413 10.3404L27.7227 10.404L27.7165 10.4567H27.6328Z" fill="white"/>
<path fill-rule="evenodd" clip-rule="evenodd" d="M27.8965 10.4567V10.2815H28.0577L28.0918 10.2846L28.1243 10.2908L28.1476 10.2985L28.1677 10.3109L28.1832 10.328L28.1941 10.345L28.2003 10.3667L28.2034 10.3869L28.2003 10.4132L28.1941 10.4334L28.1863 10.4505L28.1801 10.4567H28.0577L28.0685 10.4536L28.0887 10.4505L28.1073 10.4458L28.1212 10.4396L28.1336 10.4303L28.1383 10.421L28.1445 10.407V10.3869L28.1414 10.3714L28.1367 10.3605L28.1274 10.3543L28.1181 10.3481L28.1042 10.345L28.0887 10.3435H28.0747H28.0577H27.9693V10.4567H27.8965Z" fill="white"/>
<path fill-rule="evenodd" clip-rule="evenodd" d="M27.633 10.4567L27.6299 10.4737L27.6376 10.559L27.6624 10.638L27.7027 10.7093L27.7523 10.7667L27.8143 10.8163L27.8841 10.855L27.96 10.8783L28.0422 10.8876L28.1244 10.8783L28.2003 10.855L28.2701 10.8163L28.3321 10.7667L28.3817 10.7093L28.4235 10.638L28.4468 10.559L28.4545 10.4737L28.4514 10.4567H28.3646L28.3677 10.4737L28.3615 10.545L28.3445 10.6086L28.315 10.6644L28.2763 10.714L28.2298 10.7558L28.174 10.7884L28.1104 10.8085L28.0422 10.8147L27.9755 10.8085L27.9104 10.7884L27.8546 10.7558L27.8081 10.714L27.7694 10.6644L27.7415 10.6086L27.7229 10.545L27.7167 10.4737V10.4567H27.633Z" fill="white"/>
<path fill-rule="evenodd" clip-rule="evenodd" d="M27.8965 10.4567V10.6349H27.9693V10.4892H28.0422L28.1305 10.6349H28.1894L28.1011 10.4892H28.1212L28.1414 10.483L28.16 10.4768L28.1739 10.466L28.1801 10.4567H28.0577L28.0422 10.4598H27.9693V10.4567H27.8965Z" fill="white"/>
<path d="M27.6299 10.4737L27.6392 10.3884L27.6624 10.3094L27.7027 10.2396L27.7523 10.1776L27.8143 10.128L27.8841 10.0924L27.96 10.0691L28.0422 10.0598L28.1244 10.0691L28.2003 10.0924L28.2701 10.128L28.3321 10.1776L28.3817 10.2396L28.422 10.3094L28.4452 10.3884L28.4545 10.4737L28.4452 10.5589L28.422 10.638L28.3817 10.7077L28.3321 10.7666L28.2701 10.8162L28.2003 10.855L28.1244 10.8782L28.0422 10.8875L27.96 10.8782L27.8841 10.855L27.8143 10.8162L27.7523 10.7666L27.7027 10.7077L27.6624 10.638L27.6392 10.5589L27.6299 10.4737ZM27.9693 10.6349H27.8965V10.2799H28.0577L28.0934 10.283L28.1259 10.2892L28.1492 10.2985L28.1693 10.3109L28.1833 10.328L28.1957 10.345L28.2019 10.3652L28.205 10.3853L28.2019 10.4117L28.1957 10.4318L28.1864 10.4489L28.174 10.4628L28.16 10.4752L28.143 10.4814L28.1228 10.4876H28.1027L28.191 10.6333H28.1321L28.0437 10.4876H27.9709V10.6349H27.9693ZM28.0422 10.4597L28.0685 10.4535L28.0887 10.4504L28.1058 10.4442L28.1197 10.438L28.1321 10.4287L28.1383 10.4194L28.1445 10.4055V10.3853L28.1414 10.3714L28.1352 10.359L28.1259 10.3528L28.1166 10.3466L28.1027 10.3435L28.0887 10.3404H28.0747H28.0577H27.9693V10.4582H28.0422V10.4597ZM28.0422 10.8147L28.1089 10.8085L28.174 10.7883L28.2298 10.7558L28.2763 10.7155L28.315 10.6659L28.3445 10.6101L28.3615 10.545L28.3677 10.4752L28.3615 10.4055L28.3445 10.3404L28.315 10.2815L28.2763 10.2319L28.2298 10.1916L28.174 10.1621L28.1089 10.142L28.0422 10.1358L27.9755 10.142L27.9104 10.1621L27.8546 10.1916L27.8081 10.2319L27.7694 10.2815L27.7399 10.3404L27.7229 10.4055L27.7167 10.4752L27.7229 10.545L27.7399 10.6101L27.7694 10.6659L27.8081 10.7155L27.8546 10.7558L27.9104 10.7883L27.9755 10.8085L28.0422 10.8147Z" stroke="white" stroke-width="0.216" stroke-miterlimit="2.6131"/>
<path fill-rule="evenodd" clip-rule="evenodd" d="M22.5303 10.8581H23.3549L23.651 9.19182L23.6634 9.12827L23.6804 9.06317L23.6975 8.99962L23.7207 8.93451L23.7502 8.87096L23.7858 8.80896L23.8246 8.75006L23.8711 8.69426L23.9238 8.64465L23.9827 8.59815L24.0493 8.55475L24.1253 8.5191L24.2105 8.48965L24.3035 8.4664L24.4058 8.44935L24.5205 8.44315H24.5608H24.5856H24.5934L24.7251 7.68982L24.643 7.69602L24.5639 7.70532L24.4911 7.71927L24.4213 7.74097L24.3562 7.76422L24.2958 7.79367L24.2369 7.82467L24.1811 7.86033L24.1284 7.90063L24.0788 7.94248L24.0323 7.98898L23.9842 8.03548L23.9408 8.08508L23.8974 8.14089L23.8525 8.19359L23.8122 8.25249L23.9005 7.72237H23.0774L22.5303 10.8581Z" fill="white"/>
<path d="M22.5303 10.8581H23.3549L23.651 9.19182L23.6634 9.12827L23.6804 9.06317L23.6975 8.99962L23.7207 8.93451L23.7502 8.87096L23.7858 8.80896L23.8246 8.75006L23.8711 8.69426L23.9238 8.64465L23.9827 8.59815L24.0493 8.55475L24.1253 8.5191L24.2105 8.48965L24.3035 8.4664L24.4058 8.44935L24.5205 8.44315H24.5608H24.5856H24.5934L24.7251 7.68982L24.643 7.69602L24.5639 7.70532L24.4911 7.71927L24.4213 7.74097L24.3562 7.76422L24.2958 7.79367L24.2369 7.82467L24.1811 7.86033L24.1284 7.90063L24.0788 7.94248L24.0323 7.98898L23.9842 8.03548L23.9408 8.08508L23.8974 8.14089L23.8525 8.19359L23.8122 8.25249L23.9005 7.72237H23.0774L22.5303 10.8581Z" stroke="white" stroke-width="0.216" stroke-miterlimit="2.6131"/>
<path fill-rule="evenodd" clip-rule="evenodd" d="M14.7778 10.8581H15.6025H15.618L15.8985 9.19182L15.9109 9.12827L15.9249 9.06627L15.9404 9.00427L15.9605 8.94692L15.9838 8.88801L16.0132 8.83221L16.0473 8.77951L16.0892 8.72991L16.1357 8.68651L16.1884 8.64155L16.2535 8.60745L16.3232 8.5749L16.4054 8.54855L16.4953 8.5253L16.5961 8.5098L16.7092 8.50205H16.7185L16.7294 8.5036L16.7449 8.5067H16.7588L16.7743 8.5098L16.7852 8.5129L16.7945 8.516H16.7976L16.8007 8.5036L16.8084 8.4695L16.8208 8.4168L16.8348 8.35169L16.8565 8.27574L16.8766 8.19359L16.903 8.11143L16.9293 8.02928L16.9526 7.97503L16.982 7.91923L17.0115 7.86343L17.0409 7.81382L17.0673 7.76887L17.0874 7.73477L17.1014 7.71462L17.1076 7.70532H17.1045L17.0936 7.70222L17.0781 7.69912L17.058 7.69602H17.0378L17.0146 7.69292L16.9929 7.68982H16.9727L16.8828 7.69602L16.8007 7.70532L16.7247 7.71927L16.6534 7.73787L16.5868 7.76112L16.5248 7.79057L16.4689 7.82002L16.4162 7.85412L16.3666 7.89288L16.3201 7.93628L16.2767 7.97968L16.2318 8.02928L16.1884 8.08043L16.1481 8.13469L16.1031 8.19359L16.0597 8.25249L16.1651 7.72237H15.325L14.7778 10.8581Z" fill="white"/>
<path d="M14.7778 10.8581H15.6025H15.618L15.8985 9.19182L15.9109 9.12827L15.9249 9.06627L15.9404 9.00427L15.9605 8.94692L15.9838 8.88801L16.0132 8.83221L16.0473 8.77951L16.0892 8.72991L16.1357 8.68651L16.1884 8.64155L16.2535 8.60745L16.3232 8.5749L16.4054 8.54855L16.4953 8.5253L16.5961 8.5098L16.7092 8.50205H16.7185L16.7294 8.5036L16.7449 8.5067H16.7588L16.7743 8.5098L16.7852 8.5129L16.7945 8.516H16.7976L16.8007 8.5036L16.8084 8.4695L16.8208 8.4168L16.8348 8.35169L16.8565 8.27574L16.8766 8.19359L16.903 8.11143L16.9293 8.02928L16.9526 7.97503L16.982 7.91923L17.0115 7.86343L17.0409 7.81382L17.0673 7.76887L17.0874 7.73477L17.1014 7.71462L17.1076 7.70532H17.1045L17.0936 7.70222L17.0781 7.69912L17.058 7.69602H17.0378L17.0146 7.69292L16.9929 7.68982H16.9727L16.8828 7.69602L16.8007 7.70532L16.7247 7.71927L16.6534 7.73787L16.5868 7.76112L16.5248 7.79057L16.4689 7.82002L16.4162 7.85412L16.3666 7.89288L16.3201 7.93628L16.2767 7.97968L16.2318 8.02928L16.1884 8.08043L16.1481 8.13469L16.1031 8.19359L16.0597 8.25249L16.1651 7.72237H15.325L14.7778 10.8581Z" stroke="white" stroke-width="0.216" stroke-miterlimit="2.6131"/>
</g>
<defs>
<clipPath id="clip0_16_918">
<rect width="29" height="17.3575" fill="white"/>
</clipPath>
</defs>
</svg>
