<svg width="22" height="22" viewBox="0 0 22 22" fill="none" xmlns="http://www.w3.org/2000/svg">
<g clip-path="url(#clip0_16_915)">
<path d="M18.2814 5.05911C18.1473 4.98013 17.9823 4.97463 17.8432 5.04446C17.7044 5.11445 17.6105 5.25011 17.5939 5.40471C17.5774 5.55505 17.5517 5.70536 17.5196 5.86306C16.6222 9.9358 14.8201 11.9167 12.0087 11.9167H7.88367C7.66616 11.9171 7.4789 12.0703 7.43542 12.2834L6.06042 18.7285L5.81477 20.3693C5.67353 21.1155 6.16389 21.8348 6.91 21.9761C6.99228 21.9916 7.07577 21.9997 7.15952 22H9.91866C10.5511 22.002 11.1024 21.5704 11.2524 20.956L12.3671 16.5001H14.7587C17.581 16.5001 19.5317 14.2497 20.2513 10.1632C20.7263 8.21727 19.9405 6.18132 18.2814 5.05911Z" fill="#03A9F4"/>
<path d="M17.4173 1.63353C16.5116 0.606193 15.2118 0.0122795 13.8423 3.33794e-05H6.25231C5.11644 -0.00606818 4.14938 0.824989 3.98451 1.94884L1.62777 17.6706C1.51489 18.4215 2.0321 19.1218 2.78307 19.2347C2.85122 19.245 2.92009 19.2501 2.98902 19.25H6.50901C6.72652 19.2496 6.91377 19.0964 6.95726 18.8834L8.25435 12.8334H12.0127C15.2742 12.8334 17.4293 10.5536 18.4193 6.05003C18.4591 5.8705 18.4897 5.68909 18.5109 5.50643C18.7407 4.11704 18.3399 2.69748 17.4173 1.63353Z" fill="#283593"/>
</g>
<defs>
<clipPath id="clip0_16_915">
<rect width="22" height="22" fill="white"/>
</clipPath>
</defs>
</svg>
